<?xml version="1.0" encoding="UTF-8" standalone="no"?>
<!-- Created with Inkscape (http://www.inkscape.org/) -->

<svg
   width="100mm"
   height="100mm"
   viewBox="0 0 100 100"
   version="1.1"
   id="svg27942"
   inkscape:version="1.1.2 (0a00cf5339, 2022-02-04, custom)"
   sodipodi:docname="big-performance-off.svg"
   xmlns:inkscape="http://www.inkscape.org/namespaces/inkscape"
   xmlns:sodipodi="http://sodipodi.sourceforge.net/DTD/sodipodi-0.dtd"
   xmlns="http://www.w3.org/2000/svg"
   xmlns:svg="http://www.w3.org/2000/svg">
  <sodipodi:namedview
     id="namedview27944"
     pagecolor="#ffffff"
     bordercolor="#666666"
     borderopacity="1.0"
     inkscape:pageshadow="2"
     inkscape:pageopacity="0.0"
     inkscape:pagecheckerboard="0"
     inkscape:document-units="mm"
     showgrid="false"
     inkscape:zoom="0.73673541"
     inkscape:cx="397.70044"
     inkscape:cy="235.49839"
     inkscape:window-width="2560"
     inkscape:window-height="1008"
     inkscape:window-x="1680"
     inkscape:window-y="0"
     inkscape:window-maximized="1"
     inkscape:current-layer="layer1" />
  <defs
     id="defs27939" />
  <g
     inkscape:label="Camada 1"
     inkscape:groupmode="layer"
     id="layer1">
    <path
       id="path9827"
       style="opacity:0.5;fill:#000000;fill-opacity:1;fill-rule:nonzero;stroke:none;stroke-width:0.00978837"
       d="m 50.10185,18.299656 c -0.27015,0 -0.53841,0.004 -0.80563,0.01085 -5.10855,0.129204 -9.91924,1.486747 -14.14488,3.78995 -0.4718,0.257435 -0.93659,0.525689 -1.39371,0.805635 -8.77625,5.386541 -14.7122,14.968265 -14.98823,25.931233 -0.008,0.267224 -0.0119,0.536401 -0.0119,0.804603 0,0.270158 0.004,0.538412 0.0119,0.805635 0.12921,5.136936 1.50149,9.972763 3.82819,14.213086 0.25645,0.4718 0.52786,0.936485 0.80977,1.391645 1.24312,2.016405 2.70829,3.88225 4.36252,5.561936 l 7.11223,-7.112228 c -3.74405,-3.8341 -6.05131,-9.078084 -6.05131,-14.860074 0,-11.746039 9.52305,-21.268986 21.27105,-21.268986 4.66905,0 8.98876,1.504829 12.49691,4.057634 0.26993,0.214432 0.53944,0.443334 0.80926,0.670759 l 7.16287,-7.16287 C 69.27695,24.819685 67.89698,23.797782 66.43212,22.899373 65.97501,22.618448 65.50918,22.35014 65.03738,22.092704 60.81565,19.795376 56.01109,18.43971 50.90645,18.310506 c -0.26723,-0.0069 -0.5364,-0.01085 -0.8046,-0.01085 z m 23.93704,11.15229 -7.15718,7.157185 c 0.0932,0.113565 0.18637,0.212246 0.27957,0.329698 1.16774,1.564343 2.12387,3.295015 2.82876,5.149556 l 9.75651,-2.614311 c -0.5814,-1.689518 -1.30048,-3.31575 -2.14922,-4.861719 -0.25743,-0.47082 -0.52637,-0.935048 -0.80925,-1.392163 -0.81982,-1.327875 -1.74625,-2.581288 -2.74919,-3.768246 z M 80.96715,44.257762 71.191,46.87724 c 0.11749,0.90514 0.18035,1.827541 0.18035,2.764689 0,1.176248 -0.10065,2.328664 -0.28422,3.453019 l 9.76065,2.615343 c 0.34345,-1.743501 0.54754,-3.536654 0.58756,-5.370214 0.007,-0.231984 0.009,-0.465185 0.009,-0.698148 0,-0.304416 -0.005,-0.609576 -0.0139,-0.911055 -0.0438,-1.52204 -0.20926,-3.012554 -0.46354,-4.473112 z m -11.23446,13.5847 c -1.04393,2.496913 -2.54958,4.752726 -4.41161,6.659541 l 7.11016,7.111193 c 1.69828,-1.723731 3.19812,-3.643436 4.46278,-5.719545 0.27896,-0.458094 0.54591,-0.924039 0.79943,-1.396815 0.69871,-1.291934 1.29709,-2.643621 1.81126,-4.03593 z" />
    <path
       d="m 51.1412,50.657815 c -0.63449,0.628977 -1.66338,0.623544 -2.29239,-0.01093 -0.31035,-0.31304 -0.46705,-0.72238 -0.46787,-1.132601 -0.003,-0.419612 0.15582,-0.84063 0.47723,-1.159281 0.63499,-0.629527 1.66338,-0.624577 2.2924,0.0099 0.31139,0.314081 0.46703,0.723412 0.46892,1.133641 0.002,0.420134 -0.15687,0.840612 -0.47829,1.159273 z M 49.90364,28.685148 v 0 c -0.35289,0.0011 -0.6444,0.275565 -0.6678,0.627847 l -1.06495,16.084129 c -0.60476,0.269479 -1.16373,0.678336 -1.62375,1.22678 -1.39052,1.657825 -1.38757,4.113935 0.005,5.769679 1.79431,2.13233 5.0635,2.145383 6.87354,0.02701 1.40508,-1.645241 1.42659,-4.097615 0.0504,-5.767344 -0.47298,-0.574318 -1.05436,-0.998557 -1.68544,-1.271816 L 50.57701,29.306771 c -0.0266,-0.351434 -0.321,-0.623232 -0.67333,-0.621666"
       style="opacity:0.5;fill:#000000;fill-opacity:1;fill-rule:nonzero;stroke:none;stroke-width:0.00737143"
       id="path9829" />
    <g
       id="g9835"
       style="opacity:0.5;fill:none;stroke:#000000;stroke-width:2.7;stroke-miterlimit:4;stroke-dasharray:none;stroke-opacity:1"
       transform="matrix(1.169283,0,0,1.169283,115.00179,1.5789162)">
      <g
         id="g9833"
         style="fill:none;stroke:#000000;stroke-width:2.7;stroke-miterlimit:4;stroke-dasharray:none;stroke-opacity:1">
        <circle
           style="fill:none;stroke:#000000;stroke-width:2.7;stroke-miterlimit:4;stroke-dasharray:none;stroke-opacity:1"
           id="circle9831"
           cx="-55.591152"
           cy="41.410919"
           r="34.879726" />
      </g>
    </g>
  </g>
</svg>
