<?xml version="1.0" encoding="UTF-8" standalone="no"?>
<!-- Created with Inkscape (http://www.inkscape.org/) -->

<svg
   width="100mm"
   height="100mm"
   viewBox="0 0 100 100"
   version="1.1"
   id="svg27942"
   inkscape:version="1.1.2 (0a00cf5339, 2022-02-04, custom)"
   sodipodi:docname="big-performance-on.svg"
   xmlns:inkscape="http://www.inkscape.org/namespaces/inkscape"
   xmlns:sodipodi="http://sodipodi.sourceforge.net/DTD/sodipodi-0.dtd"
   xmlns="http://www.w3.org/2000/svg"
   xmlns:svg="http://www.w3.org/2000/svg">
  <sodipodi:namedview
     id="namedview27944"
     pagecolor="#ffffff"
     bordercolor="#666666"
     borderopacity="1.0"
     inkscape:pageshadow="2"
     inkscape:pageopacity="0.0"
     inkscape:pagecheckerboard="0"
     inkscape:document-units="mm"
     showgrid="false"
     inkscape:zoom="0.73673541"
     inkscape:cx="397.70044"
     inkscape:cy="235.49839"
     inkscape:window-width="2560"
     inkscape:window-height="1008"
     inkscape:window-x="1680"
     inkscape:window-y="0"
     inkscape:window-maximized="1"
     inkscape:current-layer="layer1" />
  <defs
     id="defs27939" />
  <g
     inkscape:label="Camada 1"
     inkscape:groupmode="layer"
     id="layer1">
    <g
       id="g28111"
       style="fill:#000000;stroke:#000000;stroke-opacity:1">
      <path
         id="path115"
         style="fill:#000000;fill-opacity:1;fill-rule:nonzero;stroke:#000000;stroke-width:0.0369954;stroke-opacity:1"
         d="m 189.36133,69.164062 c -1.02106,0 -2.03493,0.01509 -3.04492,0.04102 -19.3079,0.48833 -37.49003,5.6192 -53.46094,14.324219 -1.78318,0.972983 -3.53989,1.986858 -5.26758,3.044922 -33.17008,20.358577 -55.60517,56.572967 -56.648437,98.007807 -0.02948,1.00998 -0.04492,2.02734 -0.04492,3.04102 0,1.02107 0.01529,2.03494 0.04492,3.04492 0.488345,19.41519 5.674938,37.69233 14.46875,53.71875 0.969283,1.78318 1.995079,3.53947 3.060547,5.25976 4.698418,7.62106 10.236053,14.67307 16.48828,21.02149 l 26.88086,-26.88086 c -14.15074,-14.49109 -22.87109,-34.31087 -22.87109,-56.16406 0,-44.39448 35.99264,-80.38672 80.39453,-80.38672 17.64681,0 33.97327,5.68754 47.23242,15.33594 1.02021,0.81045 2.03881,1.67559 3.05859,2.53515 L 266.72461,98.035156 C 261.83415,93.806701 256.6185,89.94439 251.08203,86.548828 249.35436,85.487064 247.59373,84.472986 245.81055,83.5 229.85442,74.817186 211.69544,69.693408 192.40234,69.205078 c -1.01,-0.02608 -2.02734,-0.04102 -3.04101,-0.04102 z m 90.4707,42.150388 -27.05078,27.05078 c 0.35238,0.42922 0.7044,0.80219 1.05664,1.2461 4.41354,5.91248 8.02726,12.4536 10.69141,19.46289 l 36.875,-9.88086 c -2.19744,-6.38558 -4.91522,-12.53197 -8.12305,-18.375 -0.97297,-1.77948 -1.98943,-3.53404 -3.05859,-5.26172 -3.09854,-5.01874 -6.6,-9.75605 -10.39063,-14.24219 z m 26.18555,55.95899 -36.94922,9.90039 c 0.44404,3.421 0.68164,6.90724 0.68164,10.44922 0,4.44566 -0.38041,8.80125 -1.07422,13.05078 l 36.89063,9.88476 c 1.29807,-6.58961 2.06944,-13.36688 2.2207,-20.29687 0.0257,-0.87679 0.0352,-1.75818 0.0352,-2.63867 0,-1.15055 -0.0194,-2.30391 -0.0527,-3.44336 -0.16549,-5.75259 -0.79091,-11.38603 -1.75195,-16.90625 z m -42.46094,51.34375 c -3.94557,9.43715 -9.63623,17.96306 -16.67383,25.16992 l 26.87305,26.87695 c 6.4187,-6.51489 12.0874,-13.77047 16.86719,-21.61718 1.05437,-1.73138 2.0633,-3.49243 3.02148,-5.2793 2.64081,-4.8829 4.90238,-9.99164 6.8457,-15.25391 z"
         transform="scale(0.26458333)" />
      <path
         d="m 48.403239,50.106187 c -0.07694,-0.890098 0.586049,-1.676952 1.476161,-1.753886 0.439172,-0.03796 0.853928,0.103765 1.169574,0.365782 0.324151,0.266471 0.545944,0.657924 0.584922,1.108844 0.07701,0.890833 -0.585248,1.677616 -1.475352,1.754558 -0.440643,0.0381 -0.854724,-0.104429 -1.171042,-0.365636 -0.324218,-0.267206 -0.545271,-0.658722 -0.584253,-1.109649 z m 17.670589,13.117904 v 0 c 0.225086,-0.27178 0.200922,-0.671431 -0.05468,-0.914956 L 54.346027,51.192849 c 0.180211,-0.637087 0.224053,-1.328238 0.0973,-2.03276 -0.383124,-2.129582 -2.271676,-3.699898 -4.435043,-3.690462 -2.786792,0.01301 -4.889998,2.515872 -4.42169,5.262589 0.364132,2.132714 2.23415,3.719426 4.397891,3.731405 0.743982,0.0044 1.442108,-0.170547 2.056074,-0.48035 l 13.12463,9.360067 c 0.287001,0.204561 0.684261,0.152458 0.908647,-0.119183"
         style="fill:#000000;fill-opacity:1;fill-rule:nonzero;stroke:#000000;stroke-width:0.00737143;stroke-opacity:1"
         id="path117" />
      <g
         id="g5112"
         style="fill:#000000;fill-opacity:0;stroke:#000000;stroke-width:2.7;stroke-miterlimit:4;stroke-dasharray:none;stroke-opacity:1"
         transform="matrix(1.169283,0,0,1.169283,115.00179,1.5789177)">
        <g
           id="g5108"
           style="fill:#000000;fill-opacity:0;stroke:#000000;stroke-width:2.7;stroke-miterlimit:4;stroke-dasharray:none;stroke-opacity:1">
          <circle
             style="fill:#000000;fill-opacity:0;stroke:#000000;stroke-width:2.7;stroke-miterlimit:4;stroke-dasharray:none;stroke-opacity:1"
             id="path4805"
             cx="-55.591152"
             cy="41.410919"
             r="34.879726" />
        </g>
      </g>
    </g>
  </g>
</svg>
